<?xml version="1.0" encoding="iso-8859-1"?>
<!-- Generator: Adobe Illustrator 16.0.0, SVG Export Plug-In . SVG Version: 6.00 Build 0)  -->
<!DOCTYPE svg PUBLIC "-//W3C//DTD SVG 1.1//EN" "http://www.w3.org/Graphics/SVG/1.1/DTD/svg11.dtd">
<svg version="1.1" id="Capa_1" xmlns="http://www.w3.org/2000/svg" xmlns:xlink="http://www.w3.org/1999/xlink" x="0px" y="0px"
	 width="176.969px" height="176.969px" viewBox="0 0 176.969 176.969" style="enable-background:new 0 0 176.969 176.969;"
	 xml:space="preserve">
<g>
	<g>
		<path d="M166.452,54.22c-1.4-3.009-4.971-4.309-7.974-2.899l-25.014,11.671c-0.137,0.065-0.225,0.186-0.361,0.266
			c-0.36,0.201-0.656,0.443-0.963,0.71c-0.189,0.168-0.438,0.271-0.604,0.458H88.265c0.029-4.892-1.017-9.679-3.892-13.758
			c-9.073-12.903-24.241-4.146-27.902,6.585c-7.034-1.584-15.791,1.218-19.659,7.173H20.288c-1.38-1.481-3.402-2.317-5.509-1.883
			c-3.248,0.65-5.361,3.807-4.708,7.063l16.009,80.031c0.183,0.911,0.624,1.69,1.15,2.395c-6.543,0.384-11.771,5.786-11.771,12.43
			c0,6.893,5.609,12.508,12.504,12.508c6.895,0,12.504-5.615,12.504-12.508c0-4.102-2.016-7.72-5.077-10.001h81.181
			c-3.062,2.281-5.077,5.899-5.077,10.001c0,6.893,5.609,12.508,12.507,12.508c6.893,0,12.502-5.615,12.502-12.508
			c0-6.644-5.226-12.046-11.774-12.43c0.531-0.704,0.98-1.483,1.158-2.395l15.403-77.053l22.26-10.379
			C166.553,60.792,167.854,57.216,166.452,54.22z M122.684,104.443H29.29l-2.406-12.011h29.205
			c10.846,3.216,21.716,2.967,21.716,2.967s0.709-1.104,1.75-2.967h45.534L122.684,104.443z M118.676,124.457H33.289l-2.403-12.011
			h90.195L118.676,124.457z M36.256,77.567c1.156,2.687,2.882,4.923,4.915,6.862H25.289l-2.403-12.008h11.99
			C35.026,74.038,35.47,75.755,36.256,77.567z M83.465,84.436c1.519-3.553,2.985-7.681,3.892-12.008h41.733l-2.4,12.008H83.465z
			 M27.969,168.96c-2.483,0-4.504-2.016-4.504-4.505c0-2.488,2.021-4.498,4.504-4.498c2.482,0,4.504,2.01,4.504,4.498
			C32.473,166.944,30.452,168.96,27.969,168.96z M36.892,142.449l-1.998-9.989h82.187l-1.998,9.989H36.892z M128.499,164.455
			c0,2.483-2.009,4.505-4.498,4.505c-2.482,0-4.504-2.016-4.504-4.505c0-2.488,2.021-4.498,4.504-4.498
			C126.478,159.957,128.499,161.979,128.499,164.455z"/>
		<path d="M102.291,59.037c0,0,20.842,4.359,27.981-6.372c5.568-8.328-3.097-15.294-10.29-15.004
			c-1.07-7.12-9.522-14.328-16.669-7.312C94.11,39.375,102.291,59.037,102.291,59.037z"/>
		<path d="M99.022,18.093c1.874-8.836-7.714-11.78-13.646-9.135c-3.268-5.609-12.758-8.816-16.396-0.55
			c-4.69,10.634,8.721,24.367,8.721,24.367S96.617,29.459,99.022,18.093z"/>
		<path d="M34.79,38.568c6.15,4.557,16.911-2.063,16.911-2.063s0.618-12.625-6.331-15.823c-5.405-2.485-8.686,3.245-7.843,7.433
			C33.454,29.406,30.014,35.033,34.79,38.568z"/>
		<path d="M137.46,15.46c4.149-2.24,2.081-7.046-0.97-8.518c1.129-3.195-0.804-8.06-5.325-6.712
			c-5.816,1.726-6.756,11.707-6.756,11.707S132.123,18.341,137.46,15.46z"/>
		<path d="M157.249,33.677c2.778-1.492,1.396-4.714-0.649-5.701c0.756-2.143-0.532-5.399-3.564-4.498
			c-3.896,1.153-4.527,7.841-4.527,7.841S153.68,35.615,157.249,33.677z"/>
	</g>
</g>
<g>
</g>
<g>
</g>
<g>
</g>
<g>
</g>
<g>
</g>
<g>
</g>
<g>
</g>
<g>
</g>
<g>
</g>
<g>
</g>
<g>
</g>
<g>
</g>
<g>
</g>
<g>
</g>
<g>
</g>
</svg>
