<?xml version="1.0" encoding="iso-8859-1"?>
<!-- Generator: Adobe Illustrator 19.0.0, SVG Export Plug-In . SVG Version: 6.00 Build 0)  -->
<svg version="1.1" id="Capa_1" xmlns="http://www.w3.org/2000/svg" xmlns:xlink="http://www.w3.org/1999/xlink" x="0px" y="0px"
	 viewBox="0 0 512.001 512.001" style="enable-background:new 0 0 512.001 512.001;" xml:space="preserve">
<g>
	<circle style="fill:#72D8FF;" cx="193.941" cy="470" r="32"/>
	<circle style="fill:#72D8FF;" cx="386.061" cy="470" r="32"/>
</g>
<rect x="256.131" y="64" style="fill:#EF3C3C;" width="191.87" height="95.99"/>
<rect x="152.001" y="10" style="fill:#FEA02C;" width="104" height="149.99"/>
<polyline style="fill:#72D8FF;" points="87.501,159.987 502.001,159.987 462.001,378.123 118.001,378.123 64.001,64 10.001,64 
	10.001,104 70.406,104 "/>
<path d="M167.253,343.999c5.522,0,10-4.478,10-10V208.001c0-5.522-4.478-10-10-10s-10,4.478-10,10v125.998
	C157.253,339.521,161.731,343.999,167.253,343.999z"/>
<path d="M247.253,343.999c5.522,0,10-4.478,10-10V208.001c0-5.522-4.478-10-10-10s-10,4.478-10,10v125.998
	C237.253,339.521,241.731,343.999,247.253,343.999z"/>
<path d="M327.253,343.999c5.522,0,10-4.478,10-10V208.001c0-5.522-4.478-10-10-10s-10,4.478-10,10v125.998
	C317.253,339.521,321.731,343.999,327.253,343.999z"/>
<path d="M407.253,343.999c5.522,0,10-4.478,10-10V208.001c0-5.522-4.478-10-10-10s-10,4.478-10,10v125.998
	C397.253,339.521,401.731,343.999,407.253,343.999z"/>
<path d="M462.001,388.122c4.827,0,8.966-3.448,9.836-8.196l40-218.135c0.535-2.919-0.254-5.926-2.153-8.205
	c-1.9-2.28-4.715-3.599-7.683-3.599h-44V64c0-5.522-4.478-10-10-10h-182V10c0-5.522-4.478-10-10-10h-104c-5.522,0-10,4.478-10,10
	v139.987H88.93L73.856,62.306C73.031,57.507,68.87,54,64.001,54h-54c-5.522,0-10,4.478-10,10v40c0,5.522,4.478,10,10,10h52.448
	l45.552,264.976v13.019c0,28.976,22.12,52.882,50.36,55.722c-4.063,6.464-6.424,14.102-6.424,22.284c0,23.159,18.841,42,42,42
	s42-18.841,42-42c0-8.062-2.288-15.597-6.242-22h120.61c-3.954,6.403-6.242,13.938-6.242,22c0,23.159,18.841,42,42,42
	s42-18.841,42-42c0-8.062-2.288-15.597-6.242-22h40.18c5.522,0,10-4.478,10-10s-4.478-10-10-10H164.007
	c-19.854-0.001-36.006-16.153-36.006-36.007v-3.872L462.001,388.122L462.001,388.122z M20.001,94V74h35.572l3.438,20H20.001z
	 M215.938,470c0,12.131-9.869,22-22,22s-22-9.869-22-22s9.869-22,22-22S215.938,457.869,215.938,470z M408.065,470
	c0,12.131-9.869,22-22,22s-22-9.869-22-22s9.869-22,22-22S408.065,457.869,408.065,470z M438.001,74v75.987H266.128V114h86.889
	c5.522,0,10-4.478,10-10s-4.478-10-10-10h-86.889V74H438.001z M162.001,20h84v129.987h-84V20z M490.001,169.987l-36.333,198.135
	H126.429L92.368,169.987H490.001z"/>
<path d="M404.11,114c2.62,0,5.2-1.07,7.07-2.931c1.86-1.859,2.93-4.439,2.93-7.069s-1.069-5.21-2.93-7.07
	c-1.87-1.86-4.45-2.93-7.07-2.93c-2.63,0-5.21,1.069-7.08,2.93c-1.859,1.86-2.92,4.44-2.92,7.07s1.061,5.21,2.92,7.069
	C398.9,112.93,401.481,114,404.11,114z"/>
<g>
</g>
<g>
</g>
<g>
</g>
<g>
</g>
<g>
</g>
<g>
</g>
<g>
</g>
<g>
</g>
<g>
</g>
<g>
</g>
<g>
</g>
<g>
</g>
<g>
</g>
<g>
</g>
<g>
</g>
</svg>
